<?xml version="1.0" standalone="no"?>
<!DOCTYPE svg PUBLIC "-//W3C//DTD SVG 20010904//EN"
 "http://www.w3.org/TR/2001/REC-SVG-20010904/DTD/svg10.dtd">
<svg version="1.0" xmlns="http://www.w3.org/2000/svg"
 width="1500.000000pt" height="500.000000pt" viewBox="0 0 1500.000000 500.000000"
 preserveAspectRatio="xMidYMid meet">

<g transform="translate(0.000000,500.000000) scale(0.100000,-0.100000)"
fill="#000000" stroke="none">
<path d="M2180 3294 c-14 -2 -58 -9 -98 -15 -40 -6 -112 -24 -160 -40 -588
-199 -948 -828 -791 -1385 l23 -81 44 15 c37 12 43 18 37 36 -77 266 -56 516
65 757 139 281 397 496 700 586 87 25 109 28 260 28 142 0 175 -3 241 -22 41
-13 78 -23 81 -23 7 0 28 57 28 75 0 37 -310 86 -430 69z"/>
<path d="M3113 2909 c-113 -19 -196 -78 -242 -171 -57 -114 -36 -253 50 -335
39 -36 111 -71 231 -109 105 -34 146 -54 181 -92 76 -80 41 -228 -66 -284 -32
-17 -60 -22 -117 -22 -86 -1 -143 17 -216 69 -65 47 -86 45 -118 -7 l-26 -43
37 -33 c86 -76 215 -118 343 -109 103 6 178 37 241 98 67 65 91 123 97 227 6
105 -12 154 -76 214 -46 43 -91 64 -302 141 -113 42 -153 90 -148 178 7 104
78 159 207 159 62 0 78 -5 150 -41 44 -23 87 -39 95 -36 8 3 24 24 35 46 l21
40 -32 26 c-84 71 -224 105 -345 84z"/>
<path d="M3974 2910 c-202 -30 -329 -218 -269 -400 34 -102 92 -145 280 -210
139 -48 199 -80 219 -118 51 -99 14 -211 -88 -265 -33 -17 -57 -22 -121 -21
-88 0 -138 17 -215 73 -24 17 -51 31 -61 31 -11 0 -33 -19 -50 -42 l-31 -43
38 -33 c89 -77 214 -117 343 -110 186 11 313 118 340 287 21 131 -24 235 -125
293 -28 15 -106 48 -173 73 -67 24 -138 54 -158 66 -46 28 -73 74 -73 123 0
169 215 234 392 118 48 -31 68 -26 96 26 l24 42 -24 20 c-81 70 -225 107 -344
90z"/>
<path d="M5375 2910 c-168 -31 -289 -111 -370 -245 -61 -102 -80 -180 -79
-330 0 -114 4 -139 27 -208 79 -229 260 -357 502 -357 136 0 248 37 340 110
60 48 62 57 24 96 -18 19 -38 34 -44 34 -6 0 -26 -13 -45 -29 -77 -62 -154
-85 -277 -79 -116 6 -188 34 -253 99 -91 91 -125 186 -124 349 1 122 18 188
70 271 106 170 360 218 546 104 31 -19 63 -35 72 -35 8 0 28 19 45 43 l29 43
-31 25 c-117 92 -288 135 -432 109z"/>
<path d="M10830 2910 c-294 -46 -482 -303 -456 -624 25 -299 223 -496 516
-513 342 -20 584 216 583 572 0 263 -133 462 -360 540 -78 27 -202 38 -283 25z
m235 -146 c104 -33 185 -116 227 -229 30 -83 37 -259 13 -341 -54 -185 -173
-283 -357 -292 -259 -13 -421 154 -422 433 -1 244 115 408 314 445 60 12 159
4 225 -16z"/>
<path d="M12094 2910 c-227 -35 -390 -185 -449 -415 -19 -75 -19 -221 0 -304
59 -248 247 -404 505 -418 225 -12 416 89 512 272 50 97 68 173 68 297 0 216
-80 380 -237 484 -102 68 -273 104 -399 84z m159 -130 c167 -27 276 -135 313
-309 51 -241 -34 -455 -214 -539 -51 -24 -68 -27 -167 -27 -91 1 -120 5 -167
23 -170 68 -262 269 -229 499 15 108 45 177 107 243 89 95 215 134 357 110z"/>
<path d="M1960 2900 c-92 -17 -193 -64 -266 -125 -24 -20 -41 -42 -37 -48 3
-5 1 -7 -5 -3 -22 13 -131 -151 -116 -176 4 -7 3 -8 -4 -4 -7 4 -15 -8 -21
-32 -10 -36 -31 -138 -31 -150 0 -15 141 140 159 176 12 23 19 42 17 42 -3 0
7 13 22 28 15 15 38 41 52 58 23 27 121 94 138 94 7 0 75 64 126 118 17 18 26
31 20 31 -5 -1 -29 -5 -54 -9z"/>
<path d="M2087 2852 l-48 -49 34 -1 c148 -6 312 -106 386 -236 79 -138 81
-315 5 -453 -100 -180 -280 -267 -488 -235 -95 15 -170 55 -248 133 -37 36
-71 63 -74 60 -4 -3 -4 -1 -1 6 4 6 -4 33 -17 60 -23 46 -53 174 -47 202 1 8
-6 5 -19 -7 -13 -12 -19 -25 -15 -33 5 -7 4 -10 -3 -5 -6 3 -23 -5 -37 -18
-27 -25 -27 -26 -15 -78 22 -91 117 -257 140 -243 4 3 14 -3 21 -13 13 -15 12
-16 -3 -3 -10 7 -18 9 -18 3 0 -17 108 -94 121 -86 7 4 9 3 5 -4 -11 -18 112
-68 201 -82 166 -25 310 14 452 123 46 35 125 128 126 147 0 3 8 16 17 30 30
44 59 152 65 235 6 91 -19 210 -62 296 -49 95 -228 257 -294 264 -9 1 -29 7
-46 14 -69 29 -86 26 -138 -27z"/>
<path d="M6123 2343 l-222 -558 59 -3 c76 -4 94 7 116 65 9 27 34 91 55 143
l37 95 254 3 254 2 53 -137 c30 -76 60 -146 69 -155 11 -14 31 -18 80 -18 62
0 64 1 58 23 -3 12 -102 263 -219 557 l-214 535 -79 3 -79 2 -222 -557z m446
27 c33 -85 61 -158 61 -162 0 -5 -94 -8 -209 -8 l-209 0 85 218 c46 119 93
246 105 281 l21 64 42 -119 c23 -65 70 -189 104 -274z"/>
<path d="M7100 2340 l0 -560 65 0 65 0 0 452 0 453 203 -365 c219 -392 223
-397 285 -371 27 12 32 21 223 371 19 36 71 130 115 210 l79 145 3 -447 2
-448 65 0 65 0 0 560 0 560 -74 0 -75 0 -74 -132 c-132 -235 -300 -541 -330
-602 l-30 -60 -27 60 c-16 32 -114 210 -218 394 l-189 335 -77 3 -76 3 0 -561z"/>
<path d="M8560 2340 l0 -560 345 0 345 0 0 60 0 60 -270 0 -270 0 0 195 0 195
220 0 220 0 0 55 0 55 -217 2 -218 3 -3 188 -2 187 270 0 270 0 0 60 0 60
-345 0 -345 0 0 -560z"/>
<path d="M9470 2340 l0 -560 75 0 75 0 0 235 0 235 79 0 80 0 34 -42 c19 -24
94 -125 167 -226 72 -100 141 -187 151 -193 11 -5 51 -9 90 -7 l71 3 -162 220
c-89 121 -174 232 -188 248 -17 18 -21 27 -11 27 30 0 136 58 172 95 58 58 80
108 85 196 10 168 -60 262 -230 309 -62 17 -103 20 -280 20 l-208 0 0 -560z
m460 423 c177 -80 151 -330 -41 -387 -34 -10 -92 -16 -161 -16 l-108 0 0 216
0 217 133 -5 c103 -4 142 -10 177 -25z"/>
<path d="M12960 2340 l0 -560 65 0 66 0 -3 435 c-2 239 -1 435 2 434 3 0 19
-19 36 -42 101 -140 600 -786 620 -804 18 -17 37 -23 70 -23 l44 0 0 560 0
560 -65 0 -66 0 3 -430 c2 -237 1 -430 -2 -430 -4 1 -219 279 -548 711 l-114
149 -54 0 -54 0 0 -560z"/>
</g>
</svg>
